<svg width="42" height="42" viewBox="0 0 42 42" fill="none" xmlns="http://www.w3.org/2000/svg">
<g clip-path="url(#clip0_234_4)">
<path d="M41.4869 0.512376C41.1587 0.184302 40.7137 0 40.2496 0C39.7856 0 39.3405 0.184302 39.0124 0.512376L20.9996 18.5251L2.98688 0.512376C2.6587 0.184302 2.21366 0 1.74963 0C1.28559 0 0.84055 0.184302 0.512376 0.512376C0.184302 0.84055 0 1.28559 0 1.74963C0 2.21366 0.184302 2.6587 0.512376 2.98688L18.5251 20.9996L0.512376 39.0124C0.184302 39.3405 0 39.7856 0 40.2496C0 40.7137 0.184302 41.1587 0.512376 41.4869C0.84055 41.815 1.28559 41.9993 1.74963 41.9993C2.21366 41.9993 2.6587 41.815 2.98688 41.4869L20.9996 23.4741L39.0124 41.4869C39.3405 41.815 39.7856 41.9993 40.2496 41.9993C40.7137 41.9993 41.1587 41.815 41.4869 41.4869C41.815 41.1587 41.9993 40.7137 41.9993 40.2496C41.9993 39.7856 41.815 39.3405 41.4869 39.0124L23.4741 20.9996L41.4869 2.98688C41.815 2.6587 41.9993 2.21366 41.9993 1.74963C41.9993 1.28559 41.815 0.84055 41.4869 0.512376Z" fill="#F1F1F1"/>
</g>
<defs>
<clipPath id="clip0_234_4">
<rect width="42" height="42" fill="white"/>
</clipPath>
</defs>
</svg>
