<svg width="42" height="42" viewBox="0 0 42 42" fill="none" xmlns="http://www.w3.org/2000/svg">
<path d="M40.25 19.25H1.75C0.783502 19.25 0 20.0335 0 21C0 21.9665 0.783502 22.75 1.75 22.75H40.25C41.2165 22.75 42 21.9665 42 21C42 20.0335 41.2165 19.25 40.25 19.25Z" fill="#F1F1F1"/>
<path d="M40.25 7H1.75C0.783502 7 0 7.7835 0 8.75C0 9.7165 0.783502 10.5 1.75 10.5H40.25C41.2165 10.5 42 9.7165 42 8.75C42 7.7835 41.2165 7 40.25 7Z" fill="#F1F1F1"/>
<path d="M40.25 31.5H1.75C0.783502 31.5 0 32.2835 0 33.25C0 34.2165 0.783502 35 1.75 35H40.25C41.2165 35 42 34.2165 42 33.25C42 32.2835 41.2165 31.5 40.25 31.5Z" fill="#F1F1F1"/>
</svg>
