<svg width="24" height="24" viewBox="0 0 24 24" fill="none" xmlns="http://www.w3.org/2000/svg">
<g clip-path="url(#clip0_172_1698)">
<path fill-rule="evenodd" clip-rule="evenodd" d="M20.4629 3.488C18.2169 1.24 15.2309 0.001 12.0499 0C5.49488 0 0.159885 5.334 0.156885 11.892C0.155885 13.988 0.703885 16.034 1.74488 17.838L0.0568848 24L6.36088 22.346C8.09789 23.294 10.0539 23.793 12.0439 23.794H12.0489C18.6029 23.794 23.9389 18.459 23.9419 11.901C23.9439 8.724 22.7079 5.735 20.4629 3.488ZM12.0499 21.785H12.0459C10.2719 21.785 8.53288 21.308 7.01488 20.407L6.65388 20.193L2.91288 21.174L3.91188 17.526L3.67688 17.152C2.68688 15.578 2.16488 13.759 2.16588 11.892C2.16788 6.442 6.60288 2.008 12.0549 2.008C14.6949 2.008 17.1769 3.038 19.0429 4.906C20.9089 6.775 21.9359 9.258 21.9349 11.899C21.9319 17.351 17.4979 21.785 12.0499 21.785ZM17.4719 14.382C17.1749 14.233 15.7139 13.514 15.4409 13.415C15.1689 13.316 14.9709 13.266 14.7719 13.563C14.5729 13.86 14.0049 14.53 13.8309 14.729C13.6579 14.927 13.4839 14.952 13.1869 14.803C12.8899 14.654 11.9319 14.341 10.7969 13.328C9.91388 12.54 9.31688 11.567 9.14388 11.269C8.97088 10.971 9.12589 10.811 9.27388 10.663C9.40788 10.53 9.57088 10.316 9.71988 10.142C9.86988 9.97 9.91888 9.846 10.0189 9.647C10.1179 9.449 10.0689 9.275 9.99389 9.126C9.91889 8.978 9.32488 7.515 9.07788 6.92C8.83688 6.34 8.59188 6.419 8.40889 6.41C8.23588 6.401 8.03788 6.4 7.83888 6.4C7.64088 6.4 7.31888 6.474 7.04688 6.772C6.77488 7.07 6.00688 7.789 6.00688 9.251C6.00688 10.714 7.07188 12.127 7.21988 12.325C7.36788 12.523 9.31488 15.525 12.2959 16.812C13.0049 17.118 13.5589 17.301 13.9899 17.438C14.7019 17.664 15.3499 17.632 15.8619 17.556C16.4329 17.471 17.6199 16.837 17.8679 16.143C18.1159 15.449 18.1159 14.853 18.0409 14.73C17.9669 14.605 17.7689 14.531 17.4719 14.382Z" fill="#F8F8F8"/>
</g>
<defs>
<clipPath id="clip0_172_1698">
<rect width="24" height="24" fill="white"/>
</clipPath>
</defs>
</svg>
